# xmcd
#
# Track frame offsets:
#	150
#	16610
#	38647
#	59543
#	86177
#	103984
#	120647
#	134626
#	156957
#	172934
#	189760
#
# Disc length: 2794 seconds
#
# Revision: 1
# Processed by: cddbd v1.4PL0 Copyright (c) Steve Scherf et al.
# Submitted via: audiograbber 1.81.03
#
DISCID=8c0ae80b
DTITLE=Various Artist - Legendary
DYEAR=2001
DGENRE=Blues
TTITLE0=After Midnight
TTITLE1=I Can't Stand It
TTITLE2=I Shot The Sheriff
TTITLE3=My Father's Eyes
TTITLE4=Willie and the Hand Jive
TTITLE5=Lay Down Sally
TTITLE6=Promises
TTITLE7=Bell Bottom Blues
TTITLE8=Wonderful Tonight
TTITLE9=Change the World
TTITLE10=Tears in Heaven
EXTD=
EXTT0=
EXTT1=
EXTT2=
EXTT3=
EXTT4=
EXTT5=
EXTT6=
EXTT7=
EXTT8=
EXTT9=
EXTT10=
PLAYORDER=
